<?xml version="1.0" encoding="UTF-8" standalone="no"?>
<!DOCTYPE svg PUBLIC "-//W3C//DTD SVG 1.1//EN" "http://www.w3.org/Graphics/SVG/1.1/DTD/svg11.dtd">
<svg width="100%" height="100%" viewBox="0 0 1000 1000" version="1.1" xmlns="http://www.w3.org/2000/svg" xmlns:xlink="http://www.w3.org/1999/xlink" xml:space="preserve" xmlns:serif="http://www.serif.com/" style="fill-rule:evenodd;clip-rule:evenodd;stroke-linejoin:round;stroke-miterlimit:2;">
    <rect id="ArtBoard1" x="0" y="0" width="1000" height="1000" style="fill:none;"/>
    <g id="ArtBoard11" serif:id="ArtBoard1">
        <g transform="matrix(61.0183,0,0,61.0183,160.647,822.359)">
            <path d="M1.699,-9.492C2.435,-10.43 3.698,-10.898 5.488,-10.898C6.654,-10.898 7.689,-10.667 8.594,-10.205C9.499,-9.743 9.951,-8.87 9.951,-7.588L9.951,-2.705C9.951,-2.367 9.958,-1.956 9.971,-1.475C9.99,-1.11 10.046,-0.863 10.137,-0.732C10.228,-0.602 10.365,-0.495 10.547,-0.41L10.547,0L7.52,0C7.435,-0.215 7.376,-0.417 7.344,-0.605C7.311,-0.794 7.285,-1.009 7.266,-1.25C6.882,-0.833 6.439,-0.479 5.938,-0.186C5.339,0.16 4.661,0.332 3.906,0.332C2.943,0.332 2.147,0.057 1.519,-0.493C0.89,-1.043 0.576,-1.823 0.576,-2.832C0.576,-4.141 1.081,-5.088 2.09,-5.674C2.643,-5.993 3.457,-6.221 4.531,-6.357L5.479,-6.475C5.993,-6.54 6.361,-6.621 6.582,-6.719C6.979,-6.888 7.178,-7.152 7.178,-7.51C7.178,-7.946 7.026,-8.247 6.724,-8.413C6.421,-8.579 5.977,-8.662 5.391,-8.662C4.733,-8.662 4.268,-8.499 3.994,-8.174C3.799,-7.933 3.669,-7.607 3.604,-7.197L0.918,-7.197C0.977,-8.128 1.237,-8.893 1.699,-9.492ZM3.77,-2.012C4.03,-1.797 4.349,-1.689 4.727,-1.689C5.326,-1.689 5.877,-1.865 6.382,-2.217C6.886,-2.568 7.148,-3.21 7.168,-4.141L7.168,-5.176C6.992,-5.065 6.815,-4.976 6.636,-4.907C6.457,-4.839 6.211,-4.775 5.898,-4.717L5.273,-4.6C4.688,-4.495 4.268,-4.368 4.014,-4.219C3.584,-3.965 3.369,-3.571 3.369,-3.037C3.369,-2.562 3.503,-2.22 3.77,-2.012Z" style="fill:rgb(0,184,255);"/>
        </g>
    </g>
</svg>
